<svg width="48" height="48" viewBox="0 0 48 48" fill="none" xmlns="http://www.w3.org/2000/svg">
<rect width="48" height="48" rx="8" fill="#004AC6"/>
<path d="M22.4491 27.5C22.8491 27.9 23.3658 28.0958 23.9991 28.0875C24.6325 28.0792 25.0991 27.85 25.3991 27.4L30.9991 19L22.5991 24.6C22.1491 24.9 21.9116 25.3583 21.8866 25.975C21.8616 26.5917 22.0491 27.1 22.4491 27.5ZM23.9991 16C24.9825 16 25.9283 16.1375 26.8366 16.4125C27.745 16.6875 28.5991 17.1 29.3991 17.65L27.4991 18.85C26.9491 18.5667 26.3783 18.3542 25.7866 18.2125C25.195 18.0708 24.5991 18 23.9991 18C21.7825 18 19.895 18.7792 18.3366 20.3375C16.7783 21.8958 15.9991 23.7833 15.9991 26C15.9991 26.7 16.095 27.3917 16.2866 28.075C16.4783 28.7583 16.7491 29.4 17.0991 30H30.8991C31.2825 29.3667 31.5616 28.7083 31.7366 28.025C31.9116 27.3417 31.9991 26.6333 31.9991 25.9C31.9991 25.3 31.9283 24.7167 31.7866 24.15C31.645 23.5833 31.4325 23.0333 31.1491 22.5L32.3491 20.6C32.8491 21.3833 33.245 22.2167 33.5366 23.1C33.8283 23.9833 33.9825 24.9 33.9991 25.85C34.0158 26.8 33.9075 27.7083 33.6741 28.575C33.4408 29.4417 33.0991 30.2667 32.6491 31.05C32.4658 31.35 32.2158 31.5833 31.8991 31.75C31.5825 31.9167 31.2491 32 30.8991 32H17.0991C16.7491 32 16.4158 31.9167 16.0991 31.75C15.7825 31.5833 15.5325 31.35 15.3491 31.05C14.9158 30.3 14.5825 29.5042 14.3491 28.6625C14.1158 27.8208 13.9991 26.9333 13.9991 26C13.9991 24.6167 14.2616 23.3208 14.7866 22.1125C15.3116 20.9042 16.0283 19.8458 16.9366 18.9375C17.845 18.0292 18.9075 17.3125 20.1241 16.7875C21.3408 16.2625 22.6325 16 23.9991 16Z" fill="white"/>
</svg>
