<svg width="48" height="48" viewBox="0 0 48 48" fill="none" xmlns="http://www.w3.org/2000/svg">
<rect width="48" height="48" rx="8" fill="#004AC6"/>
<path d="M19.3969 29.25C18.6969 29.8333 17.9677 30.1 17.2094 30.05C16.4511 30 15.7886 29.7417 15.2219 29.275C14.6552 28.8083 14.2677 28.1958 14.0594 27.4375C13.8511 26.6792 13.9886 25.9 14.4719 25.1L16.3469 22C15.9302 21.6333 15.6011 21.1917 15.3594 20.675C15.1177 20.1583 14.9969 19.6 14.9969 19C14.9969 17.9 15.3886 16.9583 16.1719 16.175C16.9552 15.3917 17.8969 15 18.9969 15C20.0969 15 21.0386 15.3917 21.8219 16.175C22.6052 16.9583 22.9969 17.9 22.9969 19C22.9969 20.1 22.6052 21.0417 21.8219 21.825C21.0386 22.6083 20.0969 23 18.9969 23C18.8469 23 18.6969 22.9917 18.5469 22.975C18.3969 22.9583 18.2552 22.9333 18.1219 22.9L16.1969 26.15C16.0136 26.45 15.9552 26.7458 16.0219 27.0375C16.0886 27.3292 16.2302 27.5667 16.4469 27.75C16.6636 27.9333 16.9219 28.0375 17.2219 28.0625C17.5219 28.0875 17.8136 27.9833 18.0969 27.75L28.5969 18.725C29.2969 18.1417 30.0302 17.8792 30.7969 17.9375C31.5636 17.9958 32.2302 18.2583 32.7969 18.725C33.3636 19.1917 33.7469 19.8042 33.9469 20.5625C34.1469 21.3208 34.0052 22.1 33.5219 22.9L31.6469 26C32.0636 26.3667 32.3927 26.8083 32.6344 27.325C32.8761 27.8417 32.9969 28.4 32.9969 29C32.9969 30.1 32.6052 31.0417 31.8219 31.825C31.0386 32.6083 30.0969 33 28.9969 33C27.8969 33 26.9552 32.6083 26.1719 31.825C25.3886 31.0417 24.9969 30.1 24.9969 29C24.9969 27.9 25.3886 26.9583 26.1719 26.175C26.9552 25.3917 27.8969 25 28.9969 25C29.1469 25 29.2927 25.0083 29.4344 25.025C29.5761 25.0417 29.7136 25.0667 29.8469 25.1L31.7969 21.85C31.9802 21.55 32.0386 21.2542 31.9719 20.9625C31.9052 20.6708 31.7636 20.4333 31.5469 20.25C31.3302 20.0667 31.0719 19.9625 30.7719 19.9375C30.4719 19.9125 30.1802 20.0167 29.8969 20.25L19.3969 29.25ZM18.9969 21C19.5469 21 20.0177 20.8042 20.4094 20.4125C20.8011 20.0208 20.9969 19.55 20.9969 19C20.9969 18.45 20.8011 17.9792 20.4094 17.5875C20.0177 17.1958 19.5469 17 18.9969 17C18.4469 17 17.9761 17.1958 17.5844 17.5875C17.1927 17.9792 16.9969 18.45 16.9969 19C16.9969 19.55 17.1927 20.0208 17.5844 20.4125C17.9761 20.8042 18.4469 21 18.9969 21ZM28.9969 31C29.5469 31 30.0177 30.8042 30.4094 30.4125C30.8011 30.0208 30.9969 29.55 30.9969 29C30.9969 28.45 30.8011 27.9792 30.4094 27.5875C30.0177 27.1958 29.5469 27 28.9969 27C28.4469 27 27.9761 27.1958 27.5844 27.5875C27.1927 27.9792 26.9969 28.45 26.9969 29C26.9969 29.55 27.1927 30.0208 27.5844 30.4125C27.9761 30.8042 28.4469 31 28.9969 31Z" fill="white"/>
</svg>
