<svg width="48" height="48" viewBox="0 0 48 48" fill="none" xmlns="http://www.w3.org/2000/svg">
<rect width="48" height="48" rx="8" fill="#004AC6"/>
<path d="M12 30V28.425C12 27.7083 12.3667 27.125 13.1 26.675C13.8333 26.225 14.8 26 16 26C16.2167 26 16.425 26.0042 16.625 26.0125C16.825 26.0208 17.0167 26.0417 17.2 26.075C16.9667 26.425 16.7917 26.7917 16.675 27.175C16.5583 27.5583 16.5 27.9583 16.5 28.375V30H12ZM18 30V28.375C18 27.8417 18.1458 27.3542 18.4375 26.9125C18.7292 26.4708 19.1417 26.0833 19.675 25.75C20.2083 25.4167 20.8458 25.1667 21.5875 25C22.3292 24.8333 23.1333 24.75 24 24.75C24.8833 24.75 25.6958 24.8333 26.4375 25C27.1792 25.1667 27.8167 25.4167 28.35 25.75C28.8833 26.0833 29.2917 26.4708 29.575 26.9125C29.8583 27.3542 30 27.8417 30 28.375V30H18ZM31.5 30V28.375C31.5 27.9417 31.4458 27.5333 31.3375 27.15C31.2292 26.7667 31.0667 26.4083 30.85 26.075C31.0333 26.0417 31.2208 26.0208 31.4125 26.0125C31.6042 26.0042 31.8 26 32 26C33.2 26 34.1667 26.2208 34.9 26.6625C35.6333 27.1042 36 27.6917 36 28.425V30H31.5ZM20.125 28H27.9C27.7333 27.6667 27.2708 27.375 26.5125 27.125C25.7542 26.875 24.9167 26.75 24 26.75C23.0833 26.75 22.2458 26.875 21.4875 27.125C20.7292 27.375 20.275 27.6667 20.125 28ZM16 25C15.45 25 14.9792 24.8042 14.5875 24.4125C14.1958 24.0208 14 23.55 14 23C14 22.4333 14.1958 21.9583 14.5875 21.575C14.9792 21.1917 15.45 21 16 21C16.5667 21 17.0417 21.1917 17.425 21.575C17.8083 21.9583 18 22.4333 18 23C18 23.55 17.8083 24.0208 17.425 24.4125C17.0417 24.8042 16.5667 25 16 25ZM32 25C31.45 25 30.9792 24.8042 30.5875 24.4125C30.1958 24.0208 30 23.55 30 23C30 22.4333 30.1958 21.9583 30.5875 21.575C30.9792 21.1917 31.45 21 32 21C32.5667 21 33.0417 21.1917 33.425 21.575C33.8083 21.9583 34 22.4333 34 23C34 23.55 33.8083 24.0208 33.425 24.4125C33.0417 24.8042 32.5667 25 32 25ZM24 24C23.1667 24 22.4583 23.7083 21.875 23.125C21.2917 22.5417 21 21.8333 21 21C21 20.15 21.2917 19.4375 21.875 18.8625C22.4583 18.2875 23.1667 18 24 18C24.85 18 25.5625 18.2875 26.1375 18.8625C26.7125 19.4375 27 20.15 27 21C27 21.8333 26.7125 22.5417 26.1375 23.125C25.5625 23.7083 24.85 24 24 24ZM24 22C24.2833 22 24.5208 21.9042 24.7125 21.7125C24.9042 21.5208 25 21.2833 25 21C25 20.7167 24.9042 20.4792 24.7125 20.2875C24.5208 20.0958 24.2833 20 24 20C23.7167 20 23.4792 20.0958 23.2875 20.2875C23.0958 20.4792 23 20.7167 23 21C23 21.2833 23.0958 21.5208 23.2875 21.7125C23.4792 21.9042 23.7167 22 24 22Z" fill="white"/>
</svg>
