<svg width="48" height="48" viewBox="0 0 48 48" fill="none" xmlns="http://www.w3.org/2000/svg">
<rect width="48" height="48" rx="8" fill="#004AC6"/>
<path d="M18.75 33L18.5 30.8L21.35 22.95C21.6 23.1833 21.8708 23.3792 22.1625 23.5375C22.4542 23.6958 22.7667 23.8167 23.1 23.9L20.35 31.45L18.75 33ZM29.25 33L27.65 31.45L24.9 23.9C25.2333 23.8167 25.5458 23.6958 25.8375 23.5375C26.1292 23.3792 26.4 23.1833 26.65 22.95L29.5 30.8L29.25 33ZM24 23C23.1667 23 22.4583 22.7083 21.875 22.125C21.2917 21.5417 21 20.8333 21 20C21 19.35 21.1875 18.7708 21.5625 18.2625C21.9375 17.7542 22.4167 17.4 23 17.2V15H25V17.2C25.5833 17.4 26.0625 17.7542 26.4375 18.2625C26.8125 18.7708 27 19.35 27 20C27 20.8333 26.7083 21.5417 26.125 22.125C25.5417 22.7083 24.8333 23 24 23ZM24 21C24.2833 21 24.5208 20.9042 24.7125 20.7125C24.9042 20.5208 25 20.2833 25 20C25 19.7167 24.9042 19.4792 24.7125 19.2875C24.5208 19.0958 24.2833 19 24 19C23.7167 19 23.4792 19.0958 23.2875 19.2875C23.0958 19.4792 23 19.7167 23 20C23 20.2833 23.0958 20.5208 23.2875 20.7125C23.4792 20.9042 23.7167 21 24 21Z" fill="white"/>
</svg>
