<svg width="130" height="42" viewBox="0 0 130 42" fill="none" xmlns="http://www.w3.org/2000/svg">
<path d="M7.3 10.24V22H3.38V10.24H0.16V6.92H10.52V10.24H7.3ZM20.8436 10.24H16.1836V12.76H20.5836V16.08H16.1836V18.68H20.8436V22H12.2636V6.92H20.8436V10.24ZM27.5898 13.84H28.8898C30.3298 13.84 31.0498 13.2133 31.0498 11.96C31.0498 10.7067 30.3298 10.08 28.8898 10.08H27.5898V13.84ZM27.5898 22H23.6698V6.92H29.9098C31.6032 6.92 32.8965 7.36 33.7898 8.24C34.6965 9.12 35.1498 10.36 35.1498 11.96C35.1498 13.56 34.6965 14.8 33.7898 15.68C32.8965 16.56 31.6032 17 29.9098 17H27.5898V22ZM41.1445 13.84H42.4445C43.8845 13.84 44.6045 13.2133 44.6045 11.96C44.6045 10.7067 43.8845 10.08 42.4445 10.08H41.1445V13.84ZM41.1445 22H37.2245V6.92H43.4645C45.1579 6.92 46.4512 7.36 47.3445 8.24C48.2512 9.12 48.7045 10.36 48.7045 11.96C48.7045 13.56 48.2512 14.8 47.3445 15.68C46.4512 16.56 45.1579 17 43.4645 17H41.1445V22ZM59.3592 10.24H54.6992V12.76H59.0992V16.08H54.6992V18.68H59.3592V22H50.7792V6.92H59.3592V10.24ZM66.1055 6.92V22H62.1855V6.92H66.1055ZM79.4727 14.46C79.4727 15.06 79.586 15.6133 79.8127 16.12C80.0393 16.6267 80.346 17.0667 80.7327 17.44C81.1193 17.8133 81.566 18.1067 82.0727 18.32C82.5927 18.52 83.1393 18.62 83.7127 18.62C84.286 18.62 84.826 18.52 85.3327 18.32C85.8527 18.1067 86.306 17.8133 86.6927 17.44C87.0927 17.0667 87.406 16.6267 87.6327 16.12C87.8593 15.6133 87.9727 15.06 87.9727 14.46C87.9727 13.86 87.8593 13.3067 87.6327 12.8C87.406 12.2933 87.0927 11.8533 86.6927 11.48C86.306 11.1067 85.8527 10.82 85.3327 10.62C84.826 10.4067 84.286 10.3 83.7127 10.3C83.1393 10.3 82.5927 10.4067 82.0727 10.62C81.566 10.82 81.1193 11.1067 80.7327 11.48C80.346 11.8533 80.0393 12.2933 79.8127 12.8C79.586 13.3067 79.4727 13.86 79.4727 14.46ZM75.3727 14.46C75.3727 13.34 75.5793 12.3 75.9927 11.34C76.406 10.3667 76.9793 9.52 77.7127 8.8C78.446 8.08 79.3193 7.52 80.3327 7.12C81.3593 6.70667 82.486 6.5 83.7127 6.5C84.926 6.5 86.046 6.70667 87.0727 7.12C88.0993 7.52 88.9793 8.08 89.7127 8.8C90.4593 9.52 91.0393 10.3667 91.4527 11.34C91.866 12.3 92.0727 13.34 92.0727 14.46C92.0727 15.58 91.866 16.6267 91.4527 17.6C91.0393 18.56 90.4593 19.4 89.7127 20.12C88.9793 20.84 88.0993 21.4067 87.0727 21.82C86.046 22.22 84.926 22.42 83.7127 22.42C82.486 22.42 81.3593 22.22 80.3327 21.82C79.3193 21.4067 78.446 20.84 77.7127 20.12C76.9793 19.4 76.406 18.56 75.9927 17.6C75.5793 16.6267 75.3727 15.58 75.3727 14.46ZM94.5488 22V6.92H98.4688L105.709 16.14V6.92H109.609V22H105.709L98.4688 12.78V22H94.5488ZM116.367 14.46C116.367 15.06 116.481 15.6133 116.707 16.12C116.934 16.6267 117.241 17.0667 117.627 17.44C118.014 17.8133 118.461 18.1067 118.967 18.32C119.487 18.52 120.034 18.62 120.607 18.62C121.181 18.62 121.721 18.52 122.227 18.32C122.747 18.1067 123.201 17.8133 123.587 17.44C123.987 17.0667 124.301 16.6267 124.527 16.12C124.754 15.6133 124.867 15.06 124.867 14.46C124.867 13.86 124.754 13.3067 124.527 12.8C124.301 12.2933 123.987 11.8533 123.587 11.48C123.201 11.1067 122.747 10.82 122.227 10.62C121.721 10.4067 121.181 10.3 120.607 10.3C120.034 10.3 119.487 10.4067 118.967 10.62C118.461 10.82 118.014 11.1067 117.627 11.48C117.241 11.8533 116.934 12.2933 116.707 12.8C116.481 13.3067 116.367 13.86 116.367 14.46ZM112.267 14.46C112.267 13.34 112.474 12.3 112.887 11.34C113.301 10.3667 113.874 9.52 114.607 8.8C115.341 8.08 116.214 7.52 117.227 7.12C118.254 6.70667 119.381 6.5 120.607 6.5C121.821 6.5 122.941 6.70667 123.967 7.12C124.994 7.52 125.874 8.08 126.607 8.8C127.354 9.52 127.934 10.3667 128.347 11.34C128.761 12.3 128.967 13.34 128.967 14.46C128.967 15.58 128.761 16.6267 128.347 17.6C127.934 18.56 127.354 19.4 126.607 20.12C125.874 20.84 124.994 21.4067 123.967 21.82C122.941 22.22 121.821 22.42 120.607 22.42C119.381 22.42 118.254 22.22 117.227 21.82C116.214 21.4067 115.341 20.84 114.607 20.12C113.874 19.4 113.301 18.56 112.887 17.6C112.474 16.6267 112.267 15.58 112.267 14.46Z" fill="black"/>
<path d="M24.05 31.46L25.35 36.33L26.95 31.46H28.51L30.11 36.33L31.41 31.46H33.46L31.21 39H29.21L27.73 34.63L26.25 39H24.25L22 31.46H24.05ZM38.5448 33.12H36.2148V34.38H38.4148V36.04H36.2148V37.34H38.5448V39H34.2548V31.46H38.5448V33.12ZM41.918 37.48H42.348C42.8413 37.48 43.1946 37.4167 43.408 37.29C43.6213 37.1633 43.728 36.96 43.728 36.68C43.728 36.4 43.6213 36.1967 43.408 36.07C43.1946 35.9433 42.8413 35.88 42.348 35.88H41.918V37.48ZM41.918 34.42H42.278C42.8913 34.42 43.198 34.1767 43.198 33.69C43.198 33.2033 42.8913 32.96 42.278 32.96H41.918V34.42ZM39.958 31.46H42.878C43.5713 31.46 44.098 31.6267 44.458 31.96C44.818 32.2933 44.998 32.7733 44.998 33.4C44.998 33.78 44.928 34.0967 44.788 34.35C44.6546 34.5967 44.448 34.8067 44.168 34.98C44.448 35.0333 44.6846 35.1167 44.878 35.23C45.078 35.3367 45.238 35.47 45.358 35.63C45.4846 35.79 45.5746 35.97 45.628 36.17C45.6813 36.37 45.708 36.5833 45.708 36.81C45.708 37.1633 45.6446 37.4767 45.518 37.75C45.398 38.0233 45.2246 38.2533 44.998 38.44C44.778 38.6267 44.508 38.7667 44.188 38.86C43.868 38.9533 43.508 39 43.108 39H39.958V31.46ZM57.9687 33.12H55.6387V34.38H57.8387V36.04H55.6387V37.34H57.9687V39H53.6787V31.46H57.9687V33.12ZM59.3818 39V31.46H61.3418L64.9618 36.07V31.46H66.9118V39H64.9618L61.3418 34.39V39H59.3818ZM72.2998 34.78H76.1898C76.1898 35.18 76.1732 35.5433 76.1398 35.87C76.1065 36.1967 76.0398 36.5 75.9398 36.78C75.7998 37.1733 75.6098 37.5233 75.3698 37.83C75.1298 38.13 74.8465 38.3833 74.5198 38.59C74.1998 38.79 73.8465 38.9433 73.4598 39.05C73.0732 39.1567 72.6665 39.21 72.2398 39.21C71.6532 39.21 71.1165 39.1133 70.6298 38.92C70.1498 38.7267 69.7365 38.4567 69.3898 38.11C69.0432 37.7567 68.7732 37.3367 68.5798 36.85C68.3865 36.3567 68.2898 35.8133 68.2898 35.22C68.2898 34.6333 68.3832 34.0967 68.5698 33.61C68.7632 33.1167 69.0332 32.6967 69.3798 32.35C69.7332 32.0033 70.1565 31.7333 70.6498 31.54C71.1432 31.3467 71.6932 31.25 72.2998 31.25C73.0865 31.25 73.7765 31.42 74.3698 31.76C74.9632 32.1 75.4332 32.6267 75.7798 33.34L73.9198 34.11C73.7465 33.6967 73.5198 33.4 73.2398 33.22C72.9665 33.04 72.6532 32.95 72.2998 32.95C72.0065 32.95 71.7398 33.0067 71.4998 33.12C71.2598 33.2267 71.0532 33.3833 70.8798 33.59C70.7132 33.79 70.5798 34.0333 70.4798 34.32C70.3865 34.6067 70.3398 34.9267 70.3398 35.28C70.3398 35.6 70.3798 35.8967 70.4598 36.17C70.5465 36.4433 70.6732 36.68 70.8398 36.88C71.0065 37.08 71.2132 37.2367 71.4598 37.35C71.7065 37.4567 71.9932 37.51 72.3198 37.51C72.5132 37.51 72.6998 37.49 72.8798 37.45C73.0598 37.4033 73.2198 37.3333 73.3598 37.24C73.5065 37.14 73.6265 37.0133 73.7198 36.86C73.8132 36.7067 73.8765 36.52 73.9098 36.3H72.2998V34.78ZM79.3887 31.46V39H77.4287V31.46H79.3887ZM80.9638 39V31.46H82.9238L86.5438 36.07V31.46H88.4938V39H86.5438L82.9238 34.39V39H80.9638ZM94.3652 33.12H92.0352V34.38H94.2352V36.04H92.0352V37.34H94.3652V39H90.0752V31.46H94.3652V33.12ZM100.068 33.12H97.7383V34.38H99.9383V36.04H97.7383V37.34H100.068V39H95.7783V31.46H100.068V33.12ZM103.441 34.83H103.811C104.198 34.83 104.495 34.75 104.701 34.59C104.908 34.43 105.011 34.2 105.011 33.9C105.011 33.6 104.908 33.37 104.701 33.21C104.495 33.05 104.198 32.97 103.811 32.97H103.441V34.83ZM107.751 39H105.311L103.441 36.1V39H101.481V31.46H104.531C104.951 31.46 105.318 31.5233 105.631 31.65C105.945 31.77 106.201 31.9367 106.401 32.15C106.608 32.3633 106.761 32.61 106.861 32.89C106.968 33.17 107.021 33.47 107.021 33.79C107.021 34.3633 106.881 34.83 106.601 35.19C106.328 35.5433 105.921 35.7833 105.381 35.91L107.751 39Z" fill="black"/>
</svg>
